<svg width="131" height="30" viewBox="0 0 131 30" fill="none" xmlns="http://www.w3.org/2000/svg">
<path d="M45.008 17.545V19.071H37.658V9.27095H44.812V10.797H39.478V13.345H44.21V14.843H39.478V17.545H45.008ZM49.1106 19.169C48.5039 19.169 47.9113 19.0896 47.3326 18.931C46.7539 18.7723 46.2919 18.5716 45.9466 18.329L46.6186 16.999C46.9546 17.223 47.3559 17.405 47.8226 17.545C48.2986 17.6756 48.7653 17.741 49.2226 17.741C50.2679 17.741 50.7906 17.4656 50.7906 16.915C50.7906 16.6536 50.6553 16.4716 50.3846 16.369C50.1233 16.2663 49.6986 16.1683 49.1106 16.075C48.4946 15.9816 47.9906 15.8743 47.5986 15.753C47.2159 15.6316 46.8799 15.4216 46.5906 15.123C46.3106 14.815 46.1706 14.3903 46.1706 13.849C46.1706 13.1396 46.4646 12.575 47.0526 12.155C47.6499 11.7256 48.4526 11.511 49.4606 11.511C49.9739 11.511 50.4873 11.5716 51.0006 11.693C51.5139 11.805 51.9339 11.959 52.2606 12.155L51.5886 13.485C50.9539 13.1116 50.2399 12.925 49.4466 12.925C48.9333 12.925 48.5413 13.0043 48.2706 13.163C48.0093 13.3123 47.8786 13.513 47.8786 13.765C47.8786 14.045 48.0186 14.2456 48.2986 14.367C48.5879 14.479 49.0313 14.5863 49.6286 14.689C50.2259 14.7823 50.7159 14.8896 51.0986 15.011C51.4813 15.1323 51.8079 15.3376 52.0786 15.627C52.3586 15.9163 52.4986 16.327 52.4986 16.859C52.4986 17.559 52.1953 18.119 51.5886 18.539C50.9819 18.959 50.1559 19.169 49.1106 19.169ZM58.1497 11.511C58.8777 11.511 59.5263 11.6696 60.0957 11.987C60.6743 12.3043 61.127 12.7523 61.4537 13.331C61.7803 13.9096 61.9437 14.577 61.9437 15.333C61.9437 16.089 61.7803 16.761 61.4537 17.349C61.127 17.9276 60.6743 18.3756 60.0957 18.693C59.5263 19.0103 58.8777 19.169 58.1497 19.169C57.1417 19.169 56.3437 18.833 55.7557 18.161V21.787H54.0057V11.595H55.6717V12.575C55.961 12.2203 56.3157 11.9543 56.7357 11.777C57.165 11.5996 57.6363 11.511 58.1497 11.511ZM57.9537 17.671C58.5977 17.671 59.125 17.4563 59.5357 17.027C59.9557 16.5976 60.1657 16.033 60.1657 15.333C60.1657 14.633 59.9557 14.0683 59.5357 13.639C59.125 13.2096 58.5977 12.995 57.9537 12.995C57.5337 12.995 57.1557 13.093 56.8197 13.289C56.4837 13.4756 56.2177 13.7463 56.0217 14.101C55.8257 14.4556 55.7277 14.8663 55.7277 15.333C55.7277 15.7996 55.8257 16.2103 56.0217 16.565C56.2177 16.9196 56.4837 17.195 56.8197 17.391C57.1557 17.5776 57.5337 17.671 57.9537 17.671ZM66.9633 19.169C66.2073 19.169 65.526 19.0056 64.9193 18.679C64.3127 18.3523 63.8367 17.8996 63.4913 17.321C63.1553 16.733 62.9873 16.0703 62.9873 15.333C62.9873 14.5956 63.1553 13.9376 63.4913 13.359C63.8367 12.7803 64.3127 12.3276 64.9193 12.001C65.526 11.6743 66.2073 11.511 66.9633 11.511C67.7287 11.511 68.4147 11.6743 69.0213 12.001C69.628 12.3276 70.0993 12.7803 70.4353 13.359C70.7807 13.9376 70.9533 14.5956 70.9533 15.333C70.9533 16.0703 70.7807 16.733 70.4353 17.321C70.0993 17.8996 69.628 18.3523 69.0213 18.679C68.4147 19.0056 67.7287 19.169 66.9633 19.169ZM66.9633 17.671C67.6073 17.671 68.1393 17.4563 68.5593 17.027C68.9793 16.5976 69.1893 16.033 69.1893 15.333C69.1893 14.633 68.9793 14.0683 68.5593 13.639C68.1393 13.2096 67.6073 12.995 66.9633 12.995C66.3193 12.995 65.7873 13.2096 65.3673 13.639C64.9567 14.0683 64.7513 14.633 64.7513 15.333C64.7513 16.033 64.9567 16.5976 65.3673 17.027C65.7873 17.4563 66.3193 17.671 66.9633 17.671ZM74.2928 12.687C74.7968 11.903 75.6834 11.511 76.9528 11.511V13.177C76.8034 13.149 76.6681 13.135 76.5468 13.135C75.8654 13.135 75.3334 13.3356 74.9508 13.737C74.5681 14.129 74.3768 14.6983 74.3768 15.445V19.071H72.6268V11.595H74.2928V12.687ZM83.2047 18.665C82.9994 18.833 82.7474 18.959 82.4487 19.043C82.1594 19.127 81.8514 19.169 81.5247 19.169C80.7034 19.169 80.0687 18.9543 79.6207 18.525C79.1727 18.0956 78.9487 17.4703 78.9487 16.649V13.051H77.7167V11.651H78.9487V9.94295H80.6987V11.651H82.7007V13.051H80.6987V16.607C80.6987 16.971 80.7874 17.251 80.9647 17.447C81.1421 17.6336 81.3987 17.727 81.7347 17.727C82.1267 17.727 82.4534 17.6243 82.7147 17.419L83.2047 18.665ZM93.5203 9.27095V19.071H92.0223L86.6183 12.435V19.071H84.8123V9.27095H86.3103L91.7143 15.907V9.27095H93.5203ZM103.006 15.375C103.006 15.4963 102.997 15.669 102.978 15.893H97.1123C97.215 16.4436 97.481 16.8823 97.9103 17.209C98.349 17.5263 98.8903 17.685 99.5343 17.685C100.356 17.685 101.032 17.4143 101.564 16.873L102.502 17.951C102.166 18.3523 101.742 18.6556 101.228 18.861C100.715 19.0663 100.136 19.169 99.4923 19.169C98.671 19.169 97.9477 19.0056 97.3223 18.679C96.697 18.3523 96.2117 17.8996 95.8663 17.321C95.5303 16.733 95.3623 16.0703 95.3623 15.333C95.3623 14.605 95.5257 13.9516 95.8523 13.373C96.1883 12.785 96.6503 12.3276 97.2383 12.001C97.8263 11.6743 98.489 11.511 99.2263 11.511C99.9543 11.511 100.603 11.6743 101.172 12.001C101.751 12.3183 102.199 12.771 102.516 13.359C102.843 13.9376 103.006 14.6096 103.006 15.375ZM99.2263 12.911C98.6663 12.911 98.1903 13.079 97.7983 13.415C97.4157 13.7416 97.1823 14.1803 97.0983 14.731H101.34C101.266 14.1896 101.037 13.751 100.654 13.415C100.272 13.079 99.7957 12.911 99.2263 12.911ZM116.213 11.595L113.455 19.071H111.775L109.843 13.919L107.883 19.071H106.203L103.459 11.595H105.111L107.085 17.111L109.143 11.595H110.613L112.629 17.139L114.659 11.595H116.213ZM119.63 19.169C119.023 19.169 118.431 19.0896 117.852 18.931C117.273 18.7723 116.811 18.5716 116.466 18.329L117.138 16.999C117.474 17.223 117.875 17.405 118.342 17.545C118.818 17.6756 119.285 17.741 119.742 17.741C120.787 17.741 121.31 17.4656 121.31 16.915C121.31 16.6536 121.175 16.4716 120.904 16.369C120.643 16.2663 120.218 16.1683 119.63 16.075C119.014 15.9816 118.51 15.8743 118.118 15.753C117.735 15.6316 117.399 15.4216 117.11 15.123C116.83 14.815 116.69 14.3903 116.69 13.849C116.69 13.1396 116.984 12.575 117.572 12.155C118.169 11.7256 118.972 11.511 119.98 11.511C120.493 11.511 121.007 11.5716 121.52 11.693C122.033 11.805 122.453 11.959 122.78 12.155L122.108 13.485C121.473 13.1116 120.759 12.925 119.966 12.925C119.453 12.925 119.061 13.0043 118.79 13.163C118.529 13.3123 118.398 13.513 118.398 13.765C118.398 14.045 118.538 14.2456 118.818 14.367C119.107 14.479 119.551 14.5863 120.148 14.689C120.745 14.7823 121.235 14.8896 121.618 15.011C122.001 15.1323 122.327 15.3376 122.598 15.627C122.878 15.9163 123.018 16.327 123.018 16.859C123.018 17.559 122.715 18.119 122.108 18.539C121.501 18.959 120.675 19.169 119.63 19.169Z" fill="white"/>
<circle cx="14.7903" cy="14.7903" r="14.7903" fill="white"/>
<path d="M22.0918 4.79688C22.157 4.9751 22.2549 5.07231 22.3855 5.08851C22.3855 5.16952 22.3528 5.21812 22.2876 5.23432C22.2386 5.25053 22.1734 5.26673 22.0918 5.28293C22.0265 5.42875 21.9776 5.50976 21.9449 5.52596C21.9286 5.54216 21.8878 5.56646 21.8226 5.59887C21.7899 5.63127 21.7655 5.67177 21.7491 5.72038C21.7328 5.76899 21.692 5.80139 21.6268 5.81759C21.4962 5.76899 21.4065 5.76088 21.3576 5.79329C21.3086 5.82569 21.2923 5.8824 21.3086 5.96341C21.227 6.02821 21.1536 6.10112 21.0883 6.18213C21.0231 6.26314 20.9252 6.31985 20.7947 6.35225C20.762 6.54667 20.7212 6.64388 20.6723 6.64388C20.6397 6.64388 20.607 6.65199 20.5744 6.66819C20.5091 6.73299 20.4928 6.84641 20.5254 7.00843C20.5907 7.23525 20.5907 7.37297 20.5254 7.42157C20.4602 7.45398 20.4194 7.51068 20.4031 7.59169C20.4357 7.6727 20.4928 7.73751 20.5744 7.78611C20.656 7.83472 20.656 7.90763 20.5744 8.00484C20.6723 8.16686 20.7049 8.27217 20.6723 8.32078C20.656 8.35318 20.6315 8.39368 20.5989 8.44229C20.6805 8.5719 20.7049 8.65291 20.6723 8.68532C20.656 8.70152 20.6397 8.72582 20.6233 8.75822C20.7049 8.95265 20.6968 9.12277 20.5989 9.26858C20.501 9.3982 20.4112 9.51161 20.3297 9.60882C20.3297 9.67363 20.346 9.73033 20.3786 9.77894C20.4112 9.81134 20.4357 9.85995 20.452 9.92476C20.4357 10.0544 20.4602 10.1759 20.5254 10.2893C20.607 10.4027 20.607 10.5242 20.5254 10.6538C20.5254 10.7348 20.5336 10.8321 20.5499 10.9455C20.5826 11.0427 20.5662 11.1237 20.501 11.1885C20.5336 11.4153 20.5254 11.5449 20.4765 11.5773C20.4765 11.7556 20.4765 11.8771 20.4765 11.9419C20.4765 12.0067 20.4765 12.0553 20.4765 12.0877C20.4439 12.2821 20.4194 12.4117 20.4031 12.4765C20.3868 12.5414 20.3786 12.6062 20.3786 12.671C20.4112 12.7196 20.4357 12.7601 20.452 12.7925C20.4847 12.8087 20.5173 12.8411 20.5499 12.8897C20.5499 12.9707 20.5418 13.0436 20.5254 13.1084C20.5254 13.1732 20.5418 13.238 20.5744 13.3028C20.5581 13.3514 20.5418 13.4001 20.5254 13.4487C20.5091 13.4811 20.5091 13.5297 20.5254 13.5945C20.6723 13.9023 20.7049 14.1372 20.6233 14.2993C20.6886 14.4127 20.7049 14.5423 20.6723 14.6881C20.656 14.8177 20.6315 14.9473 20.5989 15.0769C20.5826 15.2552 20.5989 15.3443 20.6478 15.3443C20.7131 15.3281 20.7539 15.3605 20.7702 15.4415C20.7865 15.5063 20.762 15.5549 20.6968 15.5873C20.6315 15.6035 20.5744 15.6278 20.5254 15.6602C20.5254 15.8222 20.501 15.9761 20.452 16.122C20.4357 16.2516 20.4439 16.365 20.4765 16.4622C20.5091 16.5594 20.5091 16.6728 20.4765 16.8024C20.4276 16.9645 20.3868 17.0293 20.3541 16.9969C20.3215 16.9645 20.2889 16.9645 20.2562 16.9969C20.3052 17.2075 20.3052 17.329 20.2562 17.3614C20.2073 17.3776 20.1665 17.41 20.1339 17.4586C20.1665 17.5072 20.2073 17.5477 20.2562 17.5801C20.3215 17.6125 20.3786 17.653 20.4276 17.7016C20.4439 17.8475 20.4683 17.9366 20.501 17.969C20.5499 17.9852 20.5662 18.0419 20.5499 18.1391C20.4683 18.1877 20.4194 18.2363 20.4031 18.2849C20.3868 18.3173 20.3949 18.3497 20.4276 18.3821C20.4602 18.4145 20.501 18.4388 20.5499 18.455C20.5989 18.455 20.6315 18.4874 20.6478 18.5522C20.5826 18.6981 20.5499 18.8115 20.5499 18.8925C20.5499 18.9735 20.5336 19.0302 20.501 19.0626C20.5499 19.095 20.5826 19.1598 20.5989 19.257C20.6152 19.338 20.5907 19.4109 20.5254 19.4757C20.5581 19.5405 20.5907 19.6054 20.6233 19.6702C20.656 19.735 20.6805 19.8079 20.6968 19.8889C20.7947 20.0509 20.8273 20.1481 20.7947 20.1805C20.762 20.2129 20.762 20.2696 20.7947 20.3506C20.7783 20.5127 20.7539 20.6261 20.7212 20.6909C20.6886 20.7557 20.656 20.8124 20.6233 20.861C20.7049 20.8286 20.8028 20.8205 20.917 20.8367C21.0476 20.8367 21.0965 20.9096 21.0639 21.0554C21.0312 21.104 20.9823 21.1445 20.917 21.1769C20.8681 21.1931 20.8191 21.2255 20.7702 21.2741C20.6233 21.4038 20.5336 21.4848 20.501 21.5172C20.4683 21.5496 20.4357 21.5982 20.4031 21.663C20.3868 21.8412 20.3541 21.9303 20.3052 21.9303C20.2562 21.9303 20.2236 21.9465 20.2073 21.9789C20.2889 22.0113 20.3623 22.0518 20.4276 22.1004C20.4928 22.1328 20.5418 22.2139 20.5744 22.3435C20.5418 22.4245 20.4847 22.546 20.4031 22.708C20.3378 22.87 20.2726 22.9753 20.2073 23.0239C20.0115 23.0239 19.8728 22.9834 19.7912 22.9024C19.5465 22.8862 19.3997 22.8214 19.3507 22.708C19.3181 22.5946 19.2447 22.546 19.1304 22.5622C19.1304 22.5946 19.0897 22.6351 19.0081 22.6837C18.9265 22.7323 18.902 22.7728 18.9347 22.8052C18.9836 22.789 19.0325 22.7647 19.0815 22.7323C19.1468 22.6999 19.2039 22.708 19.2528 22.7566C19.2365 22.8052 19.1957 22.8538 19.1304 22.9024C19.0815 22.951 19.0244 22.9834 18.9591 22.9996C18.8939 23.0158 18.8286 23.0077 18.7633 22.9753C18.6981 22.9591 18.6573 22.9105 18.641 22.8295C18.5268 22.8619 18.4533 22.8862 18.4207 22.9024C18.3881 22.9348 18.3391 22.951 18.2739 22.951C18.176 22.9186 18.127 22.87 18.127 22.8052C18.1433 22.7404 18.1515 22.6675 18.1515 22.5865C18.021 22.6189 17.9312 22.6108 17.8823 22.5622C17.8496 22.4164 17.8007 22.3435 17.7354 22.3435C17.6702 22.3273 17.6212 22.2868 17.5886 22.222C17.507 22.0275 17.4499 21.8655 17.4173 21.7359C17.401 21.6063 17.4091 21.4767 17.4418 21.3471C17.4091 21.1526 17.4336 21.0554 17.5152 21.0554C17.5968 21.0392 17.6375 20.9825 17.6375 20.8853C17.556 20.7881 17.4254 20.7476 17.246 20.7638C17.0828 20.78 16.9604 20.7476 16.8789 20.6666C16.8789 20.5694 16.8952 20.5046 16.9278 20.4722C16.9768 20.4398 17.0175 20.3911 17.0502 20.3263C16.936 20.2453 16.8707 20.1643 16.8544 20.0833C16.6912 20.0995 16.5933 20.1076 16.5607 20.1076C16.5117 20.0428 16.4954 19.9699 16.5117 19.8889C16.5281 19.7917 16.5525 19.7188 16.5852 19.6702C16.5852 19.5892 16.577 19.5324 16.5607 19.5C16.5444 19.4514 16.5281 19.4028 16.5117 19.3542C16.4628 19.2408 16.4057 19.1841 16.3404 19.1841C16.2752 19.1841 16.2262 19.1436 16.1936 19.0626C16.1446 18.933 16.0875 18.8682 16.0223 18.8682C15.957 18.8682 15.9162 18.8277 15.8999 18.7467C15.9325 18.6819 15.9325 18.6332 15.8999 18.6008C15.8836 18.5522 15.8673 18.5036 15.851 18.455C15.802 18.2444 15.7449 18.1067 15.6796 18.0419C15.6307 17.9609 15.5736 17.8799 15.5083 17.7989C15.3778 17.6206 15.3288 17.4991 15.3615 17.4343C15.2799 17.2561 15.2228 17.1427 15.1902 17.0941C15.1575 17.0455 15.1249 16.9807 15.0923 16.8996C15.0433 16.8834 14.9862 16.851 14.921 16.8024C14.872 16.7376 14.8638 16.6647 14.8965 16.5837C14.8149 16.4541 14.766 16.3731 14.7496 16.3407C14.7496 16.2921 14.7496 16.2435 14.7496 16.1949C14.5865 16.0491 14.4886 15.9599 14.456 15.9275C14.4396 15.8789 14.4233 15.8303 14.407 15.7817C14.407 15.6521 14.3907 15.5549 14.3581 15.4901C14.3254 15.4091 14.301 15.32 14.2846 15.2228C14.2194 15.1904 14.1541 15.158 14.0888 15.1255C14.0399 15.0769 14.0154 15.0121 14.0154 14.9311C14.0154 14.8663 14.0399 14.8258 14.0888 14.8096C14.1378 14.7934 14.1786 14.7529 14.2112 14.6881C14.1296 14.6395 14.0399 14.6152 13.942 14.6152C13.8441 14.599 13.7707 14.5504 13.7217 14.4694C13.6891 14.4046 13.6809 14.356 13.6973 14.3236C13.7136 14.275 13.7217 14.2182 13.7217 14.1534C13.7054 14.121 13.6809 14.0886 13.6483 14.0562C13.6157 14.0238 13.5994 13.9671 13.5994 13.8861C13.5504 13.7241 13.4688 13.635 13.3546 13.6188C13.2404 13.5864 13.1915 13.4892 13.2078 13.3271C13.2567 13.0679 13.2567 12.8978 13.2078 12.8168C13.1752 12.7358 13.1425 12.6467 13.1099 12.5495C12.9304 12.5333 12.8488 12.5576 12.8652 12.6224C12.8978 12.6872 12.8978 12.7601 12.8652 12.8411C12.7999 12.8735 12.7346 12.914 12.6694 12.9626C12.6041 13.0112 12.5633 13.076 12.547 13.157C12.5959 13.238 12.6694 13.2866 12.7673 13.3028C12.8815 13.319 12.9467 13.392 12.9631 13.5216C12.8815 13.6512 12.857 13.7241 12.8896 13.7403C12.9223 13.7403 12.9467 13.7565 12.9631 13.7889C12.9794 13.9023 12.9712 13.9995 12.9386 14.0805C12.9059 14.1615 12.8815 14.2425 12.8652 14.3236C12.8815 14.3884 12.9141 14.4289 12.9631 14.4451C13.0283 14.4451 13.0691 14.4694 13.0854 14.518C13.0528 14.7124 13.012 14.8582 12.9631 14.9554C12.9304 15.0364 12.9141 15.1174 12.9141 15.1985C12.9794 15.3605 12.9794 15.4496 12.9141 15.4658C12.8652 15.4658 12.8244 15.4901 12.7917 15.5387C12.8244 15.6197 12.8733 15.6764 12.9386 15.7088C13.0202 15.725 13.0773 15.7736 13.1099 15.8546C13.012 16.1139 12.9549 16.2597 12.9386 16.2921C13.0854 16.4703 13.1344 16.5756 13.0854 16.608C13.0528 16.6404 13.0609 16.6971 13.1099 16.7781C13.0773 17.0212 13.1017 17.1751 13.1833 17.2399C13.2649 17.3047 13.2975 17.3938 13.2812 17.5072C13.2649 17.5882 13.2323 17.6449 13.1833 17.6773C13.1344 17.6935 13.1017 17.7421 13.0854 17.8232C13.1017 18.0176 13.0773 18.1229 13.012 18.1391C12.9631 18.1391 12.9223 18.1553 12.8896 18.1877C12.9059 18.2687 12.9141 18.3659 12.9141 18.4793C12.9304 18.5765 12.9223 18.6656 12.8896 18.7467C12.9059 18.7953 12.9304 18.8358 12.9631 18.8682C12.9957 18.8844 13.0283 18.9168 13.0609 18.9654C13.0609 19.0464 13.0446 19.1193 13.012 19.1841C12.9794 19.2489 12.9712 19.3218 12.9875 19.4028C13.0202 19.4352 13.0365 19.4757 13.0365 19.5243C13.0528 19.573 13.0691 19.6297 13.0854 19.6945C13.1181 19.8889 13.1181 20.0023 13.0854 20.0347C13.0528 20.0671 13.0038 20.0995 12.9386 20.1319C12.9386 20.1805 12.9467 20.2372 12.9631 20.302C12.9957 20.3668 13.0283 20.4316 13.0609 20.4965C13.0773 20.5775 13.0691 20.6342 13.0365 20.6666C13.0038 20.699 12.9712 20.7395 12.9386 20.7881C12.9712 20.8529 12.9875 20.9258 12.9875 21.0068C13.0038 21.0878 13.0446 21.1688 13.1099 21.2498C13.1099 21.3633 13.0773 21.4524 13.012 21.5172C13.012 21.5658 13.012 21.6306 13.012 21.7116C13.012 21.7764 13.0283 21.8412 13.0609 21.906C13.1262 22.1004 13.1833 22.2301 13.2323 22.2949C13.2812 22.3435 13.322 22.4002 13.3546 22.465C13.322 22.5298 13.2894 22.5865 13.2567 22.6351C13.2241 22.6837 13.2078 22.7485 13.2078 22.8295C13.1262 23.0077 13.0038 23.1455 12.8407 23.2427C12.8081 23.4371 12.7591 23.5424 12.6938 23.5586C12.6449 23.591 12.6041 23.6315 12.5715 23.6801C12.5225 23.8583 12.4654 23.9312 12.4002 23.8988C12.3512 23.8664 12.2941 23.8745 12.2288 23.9231C12.1636 24.0042 12.0983 24.0771 12.033 24.1419C11.9678 24.2229 11.9107 24.3201 11.8617 24.4335C11.8944 24.5469 11.878 24.6522 11.8128 24.7494C11.7312 24.7494 11.6578 24.7494 11.5925 24.7494C11.5273 24.7656 11.462 24.798 11.3967 24.8467C11.4294 24.9925 11.4212 25.0654 11.3723 25.0654C11.3396 25.0816 11.307 25.0978 11.2744 25.114C11.1765 25.2112 11.1112 25.2598 11.0786 25.2598C11.0459 25.2598 11.0296 25.276 11.0296 25.3084C11.0296 25.3894 11.0459 25.4461 11.0786 25.4785C11.1275 25.5271 11.1601 25.5838 11.1765 25.6486C11.1765 25.7621 11.1112 25.8188 10.9807 25.8188C10.8501 25.8188 10.7441 25.8026 10.6625 25.7702C10.6136 25.8026 10.5973 25.8512 10.6136 25.916C10.6462 25.9808 10.6462 26.0375 10.6136 26.0861C10.5809 26.1023 10.532 26.1104 10.4667 26.1104C10.4178 26.1104 10.377 26.1266 10.3444 26.159C10.328 26.3048 10.3036 26.4344 10.2709 26.5478C10.2546 26.6775 10.1812 26.7585 10.0507 26.7909C10.018 26.8557 9.98541 26.9043 9.95278 26.9367C9.93646 26.9853 9.91199 27.0501 9.87935 27.1311C9.78146 27.2121 9.69988 27.3093 9.63462 27.4227C9.58567 27.5362 9.51225 27.6253 9.41435 27.6901C9.38172 27.7387 9.35725 27.7954 9.34093 27.8602C9.34093 27.925 9.30014 27.9655 9.21856 27.9817C9.13698 27.8845 9.10435 27.8197 9.12067 27.7873C9.1533 27.7711 9.16146 27.7387 9.14514 27.6901C9.25935 27.6091 9.32462 27.4876 9.34093 27.3255C9.37356 27.1797 9.40619 27.042 9.43883 26.9124C9.42251 26.6208 9.4633 26.3858 9.5612 26.2076C9.5612 25.9322 9.52856 25.7702 9.4633 25.7215C9.39804 25.6891 9.35725 25.6324 9.34093 25.5514C9.42251 25.3732 9.48777 25.2598 9.53672 25.2112C9.58567 25.1788 9.62646 25.1464 9.65909 25.114C9.62646 25.033 9.62646 24.952 9.65909 24.871C9.69172 24.7899 9.72435 24.717 9.75699 24.6522C9.75699 24.5226 9.73251 24.4011 9.68356 24.2877C9.65093 24.1905 9.65909 24.0933 9.70804 23.9961C9.69172 23.8178 9.70804 23.7125 9.75699 23.6801C9.80593 23.6639 9.84672 23.6315 9.87935 23.5829C9.7162 23.5343 9.63462 23.4209 9.63462 23.2427C9.65093 23.2103 9.67541 23.1698 9.70804 23.1212C9.74067 23.0725 9.75699 23.0239 9.75699 22.9753C9.72435 22.8133 9.7162 22.7242 9.73251 22.708C9.76514 22.6918 9.79778 22.6675 9.83041 22.6351C9.76514 22.5379 9.73251 22.4488 9.73251 22.3678C9.74883 22.2868 9.79778 22.2058 9.87935 22.1247C9.86304 21.9951 9.8712 21.8574 9.90383 21.7116C9.93646 21.5496 9.97725 21.4119 10.0262 21.2984C9.89567 21.0878 9.85488 20.9663 9.90383 20.9339C9.95278 20.8853 9.99357 20.8286 10.0262 20.7638C9.99357 20.618 9.97725 20.5208 9.97725 20.4722C9.97725 20.4235 9.96909 20.3749 9.95278 20.3263C9.98541 20.2615 10.018 20.2048 10.0507 20.1562C10.0996 20.0914 10.1404 20.0347 10.173 19.9861C10.173 19.7917 10.1812 19.6945 10.1975 19.6945C10.2138 19.6783 10.2301 19.654 10.2465 19.6216C10.1812 19.5081 10.1812 19.4109 10.2465 19.3299C10.2138 19.2813 10.1894 19.2246 10.173 19.1598C10.173 19.095 10.1567 19.0383 10.1241 18.9897C10.173 18.7953 10.1486 18.69 10.0507 18.6737C9.96909 18.6413 9.94462 18.5603 9.97725 18.4307C10.0262 18.3983 10.0751 18.3821 10.1241 18.3821C10.173 18.3659 10.222 18.3416 10.2709 18.3092C10.2873 18.2282 10.2709 18.1634 10.222 18.1148C10.1894 18.0662 10.1649 18.0014 10.1486 17.9204C10.1649 17.6773 10.222 17.491 10.3199 17.3614C10.2873 17.329 10.222 17.3209 10.1241 17.3371C10.0425 17.3371 9.99357 17.3047 9.97725 17.2399C9.97725 17.1427 10.0344 17.1103 10.1486 17.1427C10.2628 17.1589 10.3444 17.1508 10.3933 17.1184C10.3607 17.0374 10.3117 16.9807 10.2465 16.9483C10.1975 16.9159 10.1567 16.8672 10.1241 16.8024C10.0915 16.7214 10.0915 16.6323 10.1241 16.5351C10.0915 16.4865 10.0588 16.446 10.0262 16.4136C10.0099 16.3812 9.99357 16.3407 9.97725 16.2921C9.99357 16.2111 10.018 16.1382 10.0507 16.0734C10.0833 16.0085 10.1159 15.9437 10.1486 15.8789C10.1159 15.7817 10.1078 15.725 10.1241 15.7088C10.1404 15.6764 10.1323 15.644 10.0996 15.6116C10.1323 15.563 10.1567 15.5063 10.173 15.4415C10.2057 15.3767 10.2138 15.3119 10.1975 15.2471C10.0996 15.0202 10.0588 14.8987 10.0751 14.8825C10.1078 14.8501 10.1241 14.8015 10.1241 14.7367C10.1078 14.6881 10.0833 14.6395 10.0507 14.5909C10.018 14.5423 10.018 14.4856 10.0507 14.4208C10.018 14.2587 10.0099 14.1615 10.0262 14.1291C10.0588 14.0805 10.0915 14.0319 10.1241 13.9833V13.5945C10.222 13.3838 10.2301 13.2542 10.1486 13.2056C10.067 13.157 10.0344 13.0598 10.0507 12.914C10.0344 12.8816 10.0017 12.8492 9.95278 12.8168C9.90383 12.7844 9.90383 12.7277 9.95278 12.6467C9.90383 12.6305 9.85488 12.6224 9.80593 12.6224C9.75699 12.6224 9.7162 12.6062 9.68356 12.5738C9.66725 12.4603 9.67541 12.3793 9.70804 12.3307C9.74067 12.2821 9.7733 12.2335 9.80593 12.1849C9.83856 12.1363 9.8712 12.0877 9.90383 12.0391C9.95278 11.9905 9.99357 11.9338 10.0262 11.869C10.0588 11.7718 10.0751 11.6746 10.0751 11.5773C10.0751 11.4801 10.0751 11.3586 10.0751 11.2128C10.0425 11.1318 10.0017 11.0427 9.95278 10.9455C9.92014 10.8321 9.9283 10.7267 9.97725 10.6295C9.94462 10.4837 9.93646 10.4027 9.95278 10.3865C9.98541 10.3703 10.0099 10.346 10.0262 10.3136C9.99357 10.1516 9.98541 10.0544 10.0017 10.022C10.0344 9.98956 10.0588 9.95716 10.0751 9.92476C10.0588 9.81134 10.0588 9.72223 10.0751 9.65743C10.1078 9.59262 10.1241 9.51971 10.1241 9.4387C10.1078 9.37389 10.0833 9.32529 10.0507 9.29289C10.018 9.24428 9.99357 9.18757 9.97725 9.12277C10.0099 8.97695 9.98541 8.89594 9.90383 8.87974C9.83856 8.86354 9.79778 8.81493 9.78146 8.73392C9.79778 8.65291 9.84672 8.58811 9.9283 8.5395C10.0099 8.47469 10.0507 8.40178 10.0507 8.32078C10.0017 8.09395 9.97725 7.98054 9.97725 7.98054C9.9283 7.89953 9.92014 7.80232 9.95278 7.6889C9.98541 7.57549 9.99357 7.47828 9.97725 7.39727C9.78146 7.20285 9.67541 7.04893 9.65909 6.93552C9.57751 6.90311 9.47146 6.87881 9.34093 6.86261C9.22672 6.84641 9.17777 6.7654 9.19409 6.61958C9.14514 6.42516 9.10435 6.29555 9.07172 6.23074C9.0554 6.16593 9.06356 6.10112 9.09619 6.03632C9.03093 5.9229 8.91672 5.8662 8.75356 5.8662C8.5904 5.8662 8.45172 5.83379 8.33751 5.76899C8.15803 5.68798 8.04382 5.60697 7.99487 5.52596C8.01119 5.38014 8.06829 5.27483 8.16619 5.21002C8.24777 5.19382 8.30487 5.19382 8.33751 5.21002C8.37014 5.22622 8.40277 5.25053 8.4354 5.28293C8.5333 5.26673 8.62303 5.28293 8.70461 5.33154C8.81882 5.31533 8.91672 5.30723 8.9983 5.30723C9.07988 5.29103 9.18593 5.28293 9.31646 5.28293C9.39804 5.26673 9.47962 5.25053 9.5612 5.23432C9.64277 5.20192 9.74067 5.18572 9.85488 5.18572C9.95278 5.31533 10.018 5.37204 10.0507 5.35584C10.0833 5.32343 10.1323 5.29913 10.1975 5.28293C10.328 5.31533 10.4423 5.31533 10.5401 5.28293C10.6544 5.23432 10.7686 5.20192 10.8828 5.18572C11.0623 5.28293 11.1846 5.31533 11.2499 5.28293C11.3151 5.23432 11.4049 5.21812 11.5191 5.23432C11.6986 5.26673 11.8291 5.27483 11.9107 5.25863C11.9923 5.22622 12.0657 5.19382 12.1309 5.16142C12.2288 5.17762 12.3349 5.16952 12.4491 5.13711C12.5633 5.08851 12.6367 5.12091 12.6694 5.23432C12.702 5.42875 12.7102 5.53406 12.6938 5.55026C12.6938 5.55026 12.6938 5.55836 12.6938 5.57456C12.7917 5.76899 12.8244 5.8824 12.7917 5.9148C12.7754 5.931 12.7591 5.95531 12.7428 5.98771C12.8733 6.05252 12.9712 6.08492 13.0365 6.08492C13.1181 6.06872 13.1752 6.07682 13.2078 6.10922C13.2567 6.22264 13.2649 6.29555 13.2323 6.32795C13.2159 6.34415 13.1996 6.36845 13.1833 6.40086C13.2975 6.53047 13.3383 6.60338 13.3057 6.61958C13.2731 6.61958 13.2649 6.64388 13.2812 6.69249C13.4117 6.69249 13.4852 6.70869 13.5015 6.7411C13.5341 6.7573 13.5423 6.7816 13.5259 6.814C13.4933 6.87881 13.4444 6.92742 13.3791 6.95982C13.3138 6.97602 13.2649 7.01653 13.2323 7.08133C13.3628 7.06513 13.4362 7.10564 13.4525 7.20285C13.4852 7.28386 13.5259 7.36487 13.5749 7.44588C13.6565 7.59169 13.7217 7.6727 13.7707 7.6889C13.8359 7.70511 13.8767 7.75371 13.8931 7.83472C13.9094 7.93193 13.8931 8.01294 13.8441 8.07775C13.8115 8.12635 13.787 8.19116 13.7707 8.27217C13.9338 8.38558 14.0481 8.5233 14.1133 8.68532C14.146 8.71772 14.1949 8.75822 14.2602 8.80683C14.3254 8.85544 14.3417 8.92024 14.3091 9.00125C14.4886 9.03366 14.6028 9.09846 14.6517 9.19567C14.6517 9.27668 14.6436 9.34959 14.6273 9.4144C14.611 9.47921 14.611 9.54401 14.6273 9.60882C14.7415 9.64122 14.8312 9.68983 14.8965 9.75464C14.9781 9.80324 15.0025 9.90045 14.9699 10.0463C15.0841 10.1921 15.1249 10.2731 15.0923 10.2893C15.1902 10.4513 15.231 10.5566 15.2146 10.6052C15.1983 10.6376 15.2065 10.6781 15.2391 10.7267C15.3533 10.986 15.4267 11.2047 15.4594 11.3829C15.6062 11.4639 15.6878 11.5287 15.7041 11.5773C15.7204 11.6259 15.7449 11.6665 15.7775 11.6989C15.8591 11.8933 15.8917 12.0067 15.8754 12.0391C15.8591 12.0553 15.8428 12.0796 15.8265 12.112C15.8428 12.1606 15.8591 12.2011 15.8754 12.2335C15.9081 12.2659 15.9325 12.3064 15.9489 12.355C15.9489 12.4198 15.9325 12.4765 15.8999 12.5252C15.8673 12.5576 15.851 12.5981 15.851 12.6467C16.0141 12.7763 16.0712 12.8492 16.0223 12.8654C15.9733 12.8654 15.9407 12.8816 15.9244 12.914C16.0712 12.9626 16.161 12.995 16.1936 13.0112C16.2262 13.0274 16.2589 13.0355 16.2915 13.0355C16.4873 13.1813 16.6015 13.2866 16.6341 13.3514C16.6831 13.4001 16.6994 13.4811 16.6831 13.5945C16.7483 13.6107 16.8054 13.6512 16.8544 13.716C16.9196 13.7646 16.9196 13.8294 16.8544 13.9104C16.9686 14.04 17.0257 14.121 17.0257 14.1534C17.042 14.1696 17.0583 14.1939 17.0746 14.2263C17.042 14.3236 17.042 14.4127 17.0746 14.4937C17.1073 14.5585 17.1399 14.6314 17.1725 14.7124C17.2052 14.842 17.2378 14.9392 17.2704 15.004C17.3031 15.0688 17.352 15.1174 17.4173 15.1498C17.401 15.1012 17.4091 15.0526 17.4418 15.004C17.4744 14.9392 17.4744 14.8825 17.4418 14.8339C17.507 14.7853 17.5641 14.7367 17.6131 14.6881C17.662 14.6395 17.711 14.5909 17.7599 14.5423C17.7436 14.4775 17.7191 14.437 17.6865 14.4208C17.6702 14.3884 17.6457 14.3479 17.6131 14.2993C17.5641 14.1534 17.5478 14.0481 17.5641 13.9833C17.5804 13.9023 17.5804 13.8213 17.5641 13.7403C17.5315 13.5783 17.4907 13.473 17.4418 13.4244C17.4091 13.2299 17.401 13.1327 17.4173 13.1327C17.4499 13.1327 17.4825 13.1165 17.5152 13.0841C17.5152 12.8411 17.507 12.7034 17.4907 12.671C17.507 12.5738 17.4907 12.4765 17.4418 12.3793C17.4744 12.1525 17.4581 11.9824 17.3928 11.869C17.3439 11.7556 17.3112 11.6259 17.2949 11.4801C17.4091 11.3829 17.4825 11.3181 17.5152 11.2857C17.5478 11.2533 17.5641 11.229 17.5641 11.2128C17.4336 11.1156 17.3683 11.0589 17.3683 11.0427C17.3846 11.0265 17.3765 11.0103 17.3439 10.9941C17.3439 10.8969 17.3765 10.7835 17.4418 10.6538C17.4091 10.6214 17.3846 10.5647 17.3683 10.4837C17.3683 10.3865 17.3846 10.3217 17.4173 10.2893C17.3846 10.2245 17.352 10.1678 17.3194 10.1192C17.3031 10.0544 17.3112 9.98146 17.3439 9.90045C17.2949 9.60882 17.2868 9.3901 17.3194 9.24428C17.352 9.09846 17.3846 8.95265 17.4173 8.80683C17.352 8.75822 17.3194 8.69342 17.3194 8.61241C17.3357 8.5152 17.3602 8.43419 17.3928 8.36938C17.3112 8.20736 17.2786 8.11015 17.2949 8.07775C17.3275 8.04534 17.352 8.01294 17.3683 7.98054C17.352 7.89953 17.3194 7.83472 17.2704 7.78611C17.2215 7.73751 17.1889 7.6646 17.1725 7.56739C17.1889 7.51878 17.2215 7.48638 17.2704 7.47018C17.3357 7.45398 17.3765 7.42157 17.3928 7.37297C17.2949 7.16234 17.2623 7.04083 17.2949 7.00843C17.3275 6.95982 17.3602 6.90311 17.3928 6.83831C17.3928 6.7897 17.3765 6.7411 17.3439 6.69249C17.3112 6.62768 17.3031 6.57098 17.3194 6.52237C17.401 6.32795 17.4254 6.21454 17.3928 6.18213C17.3765 6.14973 17.3683 6.09302 17.3683 6.01201C17.3194 5.83379 17.3112 5.73658 17.3439 5.72038C17.3928 5.68798 17.4336 5.65557 17.4662 5.62317C17.2215 5.55836 17.0746 5.50165 17.0257 5.45305C17.0257 5.32343 17.0583 5.25863 17.1236 5.25863C17.1889 5.24243 17.246 5.21812 17.2949 5.18572C17.3765 5.18572 17.4581 5.16952 17.5396 5.13711C17.6212 5.10471 17.7028 5.08851 17.7844 5.08851C17.8986 5.08851 18.0291 5.08851 18.176 5.08851C18.3228 5.07231 18.4697 5.0561 18.6165 5.0399C18.7633 5.0075 18.8775 4.9913 18.9591 4.9913C19.0407 4.9751 19.0978 4.9994 19.1304 5.06421C19.212 5.12901 19.3018 5.16142 19.3997 5.16142C19.4976 5.16142 19.5791 5.18572 19.6444 5.23432C19.726 5.25053 19.7912 5.24243 19.8402 5.21002C19.8891 5.16142 19.9381 5.11281 19.987 5.06421C20.1339 5.09661 20.2562 5.10471 20.3541 5.08851C20.4683 5.0561 20.5826 5.0237 20.6968 4.9913C20.7783 5.0075 20.8436 5.0156 20.8926 5.0156C20.9578 5.0156 21.0312 5.0318 21.1128 5.06421C21.2923 5.0318 21.4391 4.9832 21.5533 4.91839C21.6839 4.83738 21.8633 4.79688 22.0918 4.79688Z" fill="black"/>
</svg>
